<svg width="45" height="45" viewBox="0 0 45 45" fill="none" xmlns="http://www.w3.org/2000/svg">
<g clip-path="url(#clip0_476_940)">
<path d="M26.7188 3.51562H28.125V4.92188H26.7188V3.51562Z" fill="#3C3DDC"/>
<path d="M19.6875 3.51562H25.3125V4.92188H19.6875V3.51562Z" fill="#3C3DDC"/>
<path d="M21.0938 40.0781H26.7188V41.4844H21.0938V40.0781Z" fill="#3C3DDC"/>
<path d="M30.9375 40.0781H32.3438V41.4844H30.9375V40.0781Z" fill="#3C3DDC"/>
<path d="M15.4688 40.0781H16.875V41.4844H15.4688V40.0781Z" fill="#3C3DDC"/>
<path d="M25.3125 23.2031C25.3125 18.3923 29.0313 14.4584 33.75 14.0984V9.14062H14.0625V35.8594H33.75V32.3079C29.0313 31.9479 25.3125 28.0139 25.3125 23.2031Z" fill="#F5812D"/>
<path d="M16.875 23.2031H23.2031V24.6094H16.875V23.2031Z" fill="#3C3DDC"/>
<path d="M16.875 26.0156H23.2031V27.4219H16.875V26.0156Z" fill="#3C3DDC"/>
<path d="M16.875 28.8281H23.2031V30.2344H16.875V28.8281Z" fill="#3C3DDC"/>
<path d="M16.875 31.6406H23.2031V33.0469H16.875V31.6406Z" fill="#3C3DDC"/>
<path d="M39.375 3.51562H40.7812V9.84375H39.375V3.51562Z" fill="#3C3DDC"/>
<path d="M39.375 0.703125H40.7812V2.10938H39.375V0.703125Z" fill="#3C3DDC"/>
<path d="M7.03125 35.1562H8.4375V41.4844H7.03125V35.1562Z" fill="#3C3DDC"/>
<path d="M40.0781 13.3594C38.9152 13.3594 37.9688 12.413 37.9688 11.25C37.9688 10.087 38.9152 9.14062 40.0781 9.14062C41.2411 9.14062 42.1875 10.087 42.1875 11.25C42.1875 12.413 41.2411 13.3594 40.0781 13.3594Z" fill="#F5812D"/>
<path d="M7.73438 35.8594C6.57141 35.8594 5.625 34.913 5.625 33.75C5.625 32.587 6.57141 31.6406 7.73438 31.6406C8.89734 31.6406 9.84375 32.587 9.84375 33.75C9.84375 34.913 8.89734 35.8594 7.73438 35.8594Z" fill="#F5812D"/>
<path d="M7.03125 42.8906H8.4375V44.2969H7.03125V42.8906Z" fill="#3C3DDC"/>
<path d="M44.2969 23.2031C44.2969 18.4999 40.9795 14.5617 36.5625 13.5928V4.21875C36.5625 2.28023 34.9854 0.703125 33.0469 0.703125H14.7656C12.8271 0.703125 11.25 2.28023 11.25 4.21875V11.9531H7.18523L6.76125 13.6519L5.26078 12.7512L1.50047 16.5094L2.40117 18.0112L0.703125 18.4352V23.7523L2.40187 24.1762L1.50047 25.6781L5.26008 29.437L6.76055 28.5363L7.18523 30.2344H11.25V40.7812C11.25 42.7198 12.8271 44.2969 14.7656 44.2969H33.0469C34.9854 44.2969 36.5625 42.7198 36.5625 40.7812V32.8134C40.9795 31.8445 44.2969 27.9063 44.2969 23.2031ZM42.8906 23.2031C42.8906 24.5735 42.5552 25.8645 41.973 27.0098C41.5828 25.9362 40.6849 25.0917 39.5248 24.8013L36.5625 24.0602V23.8922C37.4386 23.232 37.9688 22.1934 37.9688 21.0945V19.6882C37.9688 18.7059 37.5532 17.7609 36.8283 17.0958C36.1041 16.4327 35.1225 16.0995 34.1409 16.1859C32.3445 16.3413 30.9375 17.9445 30.9375 19.833V21.0938C30.9375 22.1927 31.4677 23.2313 32.3438 23.8915V24.0595L29.3815 24.8006C28.2213 25.091 27.3234 25.9355 26.9332 27.0091C26.351 25.8645 26.0156 24.5735 26.0156 23.2031C26.0156 18.5505 29.8005 14.7656 34.4531 14.7656C39.1057 14.7656 42.8906 18.5505 42.8906 23.2031ZM25.0242 20.3906H18.2812V13.3594H29.5312V14.6911C27.3839 15.9377 25.7484 17.967 25.0242 20.3906ZM14.7656 2.10938H33.0469C34.2098 2.10938 35.1562 3.05578 35.1562 4.21875V6.32812H12.6562V4.21875C12.6562 3.05578 13.6027 2.10938 14.7656 2.10938ZM11.25 24.3084C10.8063 24.5039 10.3275 24.6094 9.84375 24.6094C7.90523 24.6094 6.32812 23.0323 6.32812 21.0938C6.32812 19.1552 7.90523 17.5781 9.84375 17.5781C10.3275 17.5781 10.8063 17.6836 11.25 17.8791V24.3084ZM8.28352 28.8281L7.94109 27.4577L7.79836 27.0816L6.99539 26.7553L5.47805 27.6666L3.27164 25.4595L4.18289 23.9414L3.83133 23.0836L2.10938 22.654V19.5335L3.82922 19.1039L4.18289 18.2461L3.27164 16.728L5.47805 14.5209L6.99539 15.4322L7.8532 15.0834L8.28352 13.3594H11.25V16.3863C10.7937 16.2492 10.3212 16.1719 9.84375 16.1719C7.12969 16.1719 4.92188 18.3804 4.92188 21.0938C4.92188 23.8071 7.12969 26.0156 9.84375 26.0156C10.3212 26.0156 10.7937 25.9383 11.25 25.8012V28.8281H8.28352ZM33.0469 42.8906H14.7656C13.6027 42.8906 12.6562 41.9442 12.6562 40.7812V38.6719H35.1562V40.7812C35.1562 41.9442 34.2098 42.8906 33.0469 42.8906ZM35.1562 37.2656H12.6562V7.73438H35.1562V13.3952C34.9228 13.3784 34.6908 13.3594 34.4531 13.3594C33.2135 13.3594 32.0309 13.5991 30.9375 14.0196V11.9531H16.875V21.7969H24.7219C24.6551 22.2574 24.6094 22.7243 24.6094 23.2031C24.6094 28.6313 29.025 33.0469 34.4531 33.0469C34.6908 33.0469 34.9228 33.0279 35.1562 33.011V37.2656ZM34.4531 31.6406C31.9324 31.6406 29.6726 30.5234 28.125 28.7655V28.2115C28.125 27.2419 28.7824 26.4002 29.7225 26.1647L33.75 25.1585V23.1117L33.4005 22.9085C32.7389 22.5232 32.3438 21.8447 32.3438 21.0938V19.833C32.3438 18.6666 33.1868 17.6801 34.2626 17.5866C34.8659 17.538 35.4375 17.7279 35.8784 18.1322C36.3129 18.5309 36.5625 19.0976 36.5625 19.6875V21.0938C36.5625 21.8447 36.1673 22.5232 35.5057 22.9085L35.1562 23.1117V25.1585L39.1838 26.1647C40.1238 26.4002 40.7812 27.2419 40.7812 28.2115V28.7655C39.2337 30.5234 36.9738 31.6406 34.4531 31.6406Z" fill="#3C3DDC"/>
</g>
<defs>
<clipPath id="clip0_476_940">
<rect width="45" height="45" fill="white"/>
</clipPath>
</defs>
</svg>
