<svg width="45" height="45" viewBox="0 0 45 45" fill="none" xmlns="http://www.w3.org/2000/svg">
<g clip-path="url(#clip0_476_962)">
<path d="M35.1147 7.16588L31.9543 13.4965L31.9741 27.3488L32.0038 41.2012L32.2896 41.8118C32.6343 42.5701 33.3921 43.3081 34.0716 43.574C34.5243 43.7513 34.8492 43.7612 38.2557 43.7612C42.2724 43.7612 42.3511 43.7513 43.1584 43.2001C43.68 42.8356 44.0935 42.2843 44.3595 41.5855C44.5566 41.0536 44.5566 40.8862 44.5467 27.1918V13.3394L41.416 7.08758L38.2755 0.835728L35.1147 7.16588ZM40.4116 12.2266C40.4215 12.2756 39.4666 12.3053 38.3047 12.3053C36.9462 12.3053 36.1879 12.2662 36.1879 12.2068C36.1879 12.1474 36.6604 11.1632 37.2315 10.0211L38.2849 7.92413L39.3483 10.0409C39.9292 11.2024 40.4116 12.187 40.4116 12.2266ZM41.4057 24.9071V34.3585L38.2849 34.3387L35.1543 34.309L35.1246 24.8774L35.1048 15.4553H38.2552H41.4057V24.9071ZM41.4057 39.0349V40.5608H38.2552H35.1048V39.0349V37.5089H38.2552H41.4057V39.0349Z" fill="#F5812D"/>
<path d="M12.7566 3.05066C11.9097 3.27701 10.7973 3.77921 10.1277 4.25171C9.4189 4.73412 8.49325 5.71872 7.99105 6.51611C6.06145 9.62696 6.475 13.4569 9.0247 16.0759L9.8716 16.9521L8.2669 22.4065C7.38085 25.4094 6.6325 27.91 6.60325 27.9591C6.5641 28.018 5.3626 28.0576 3.49195 28.0576H0.449951V29.6326V31.2076H3.06895C5.5597 31.2076 5.67805 31.2175 5.61865 31.3849C4.96885 33.4522 2.1532 43.278 2.20225 43.327C2.2612 43.3666 2.83225 43.5435 4.98865 44.164C5.10655 44.1937 5.49085 43.0021 7.0465 37.7056L8.9563 31.2076H11.0043H13.0423L13.072 32.7534L13.1017 34.309L14.6574 34.3387L16.2031 34.3684V32.7835V31.2081L18.2902 31.2279L20.3872 31.2576L22.2677 37.7061C23.3014 41.2503 24.1875 44.1546 24.237 44.1546C24.493 44.1546 27.0625 43.3572 27.1021 43.2586C27.1219 43.1997 26.3636 40.492 25.4088 37.243C24.4638 33.994 23.6857 31.3062 23.6857 31.267C23.6857 31.2373 24.8377 31.2081 26.2453 31.2081H28.8049V29.6331V28.0581H25.7624H22.7295L22.4045 26.9457C22.2272 26.3449 21.4888 23.8249 20.7702 21.3634L19.4607 16.8837L19.9431 16.4602C22.3353 14.3731 23.1624 10.7007 21.9123 7.67847C21.0559 5.61116 19.3131 3.98667 17.1076 3.21852C16.3395 2.95256 16.1032 2.91341 14.8729 2.88371C13.7313 2.85356 13.3668 2.88326 12.7566 3.05066ZM16.7143 6.47696C20.0223 8.11137 20.2783 12.6892 17.1769 14.6782C16.1923 15.3082 14.5678 15.5643 13.4455 15.2592C11.1514 14.6391 9.61555 12.2959 9.98995 10.0018C10.2852 8.20002 11.4372 6.82167 13.1305 6.23127C13.6917 6.03416 13.9477 6.00491 14.8338 6.02472C15.8382 6.05352 15.907 6.07331 16.7143 6.47696ZM13.918 18.5077C14.5678 18.5964 15.6411 18.5275 16.3399 18.3502C16.5663 18.3012 16.596 18.3304 16.8223 19.1184C17.6692 21.9142 19.3527 27.7624 19.3527 27.9001C19.3527 28.0477 19.1853 28.0576 17.8069 28.0378L16.2513 28.0081L16.2216 26.4525L16.1919 24.9067H14.6263H13.0509V26.4817V28.0576H11.466C10.0089 28.0576 9.8905 28.0477 9.94 27.8803C9.9697 27.7917 10.5898 25.6551 11.3283 23.1351C12.0667 20.6151 12.6868 18.4978 12.7165 18.4191C12.7462 18.3403 12.8443 18.3106 12.9924 18.3502C13.1206 18.3795 13.5342 18.4488 13.918 18.5077Z" fill="#3C3DDC"/>
</g>
<defs>
<clipPath id="clip0_476_962">
<rect width="45" height="45" fill="white"/>
</clipPath>
</defs>
</svg>
