<svg width="45" height="45" viewBox="0 0 45 45" fill="none" xmlns="http://www.w3.org/2000/svg">
<g clip-path="url(#clip0_476_929)">
<path d="M31.2116 9.86069C28.4079 7.35019 24.7832 6.19531 21.0119 6.61416C15.1306 7.26514 10.3105 11.9917 9.54916 17.8525C9.01645 21.9533 10.3817 25.9627 13.2965 28.8528C14.4353 29.9836 15.1038 31.4171 15.2178 32.9281C14.3758 33.3426 13.7901 34.2012 13.7901 35.2013C13.7901 35.9127 14.0855 36.5542 14.558 37.0159C14.0855 37.4776 13.7901 38.1191 13.7901 38.8304C13.7901 39.5418 14.0855 40.1833 14.558 40.645C14.0855 41.1067 13.7901 41.7482 13.7901 42.4595C13.7901 43.8603 14.9296 44.9999 16.3304 44.9999H28.6691C30.0698 44.9999 31.2095 43.8604 31.2095 42.4595C31.2095 41.7482 30.9141 41.1067 30.4416 40.645C30.9141 40.1833 31.2095 39.5418 31.2095 38.8304C31.2095 38.1191 30.9141 37.4776 30.4416 37.0159C30.9141 36.5542 31.2095 35.9127 31.2095 35.2013C31.2095 34.2012 30.623 33.3426 29.7812 32.9288C29.8936 31.4219 30.5541 29.9791 31.6414 28.9143C34.1708 26.4372 35.5644 23.1282 35.5644 19.5965C35.5644 15.8864 33.9779 12.338 31.2116 9.86069ZM28.6693 43.5483H16.3306C15.7304 43.5483 15.2419 43.0598 15.2419 42.4595C15.2419 41.8593 15.7304 41.3708 16.3306 41.3708H28.6693C29.2695 41.371 29.758 41.8593 29.758 42.4595C29.758 43.0598 29.2695 43.5483 28.6693 43.5483ZM28.6693 39.9193H16.3306C15.7304 39.9193 15.2419 39.4308 15.2419 38.8306C15.2419 38.2304 15.7304 37.7419 16.3306 37.7419H28.6693C29.2695 37.7419 29.758 38.2304 29.758 38.8306C29.758 39.4308 29.2695 39.9193 28.6693 39.9193ZM28.6693 36.2902H16.3306C15.7304 36.2902 15.2419 35.8017 15.2419 35.2015C15.2419 34.6013 15.7304 34.1128 16.3306 34.1128H28.6693C29.2695 34.1128 29.758 34.6013 29.758 35.2015C29.758 35.8017 29.2695 36.2902 28.6693 36.2902ZM30.6259 27.8767C29.3253 29.1497 28.5146 30.862 28.3411 32.6611H16.6585C16.4858 30.8597 15.6699 29.1634 14.3185 27.8221C11.7281 25.2535 10.5146 21.6875 10.9878 18.0397C11.665 12.8335 15.9473 8.63539 21.1716 8.05696C24.5219 7.68536 27.7496 8.70871 30.2427 10.9421C32.7024 13.1443 34.1126 16.2986 34.1126 19.5966C34.1128 22.7351 32.8747 25.6753 30.6259 27.8767Z" fill="#3C3DDC"/>
<path d="M40.6294 19.6947C40.3566 11.7247 34.9216 5.04645 27.5692 2.90313H38.4679V4.35477H42.8226V0H38.4676V1.45164H6.53211V0H2.17749V4.35477H6.53226V2.90313H17.431C10.0786 5.04661 4.64364 11.7247 4.37081 19.6947C3.11365 20.014 2.17749 21.1456 2.17749 22.5C2.17749 24.1012 3.47961 25.4033 5.08078 25.4033C6.68194 25.4033 7.98406 24.1012 7.98406 22.5C7.98406 21.1572 7.06299 20.0345 5.8226 19.7049C6.14908 10.7855 13.5023 3.62911 22.5 3.62911C31.4978 3.62911 38.851 10.7855 39.1776 19.7049C37.9372 20.0345 37.0161 21.1573 37.0161 22.5C37.0161 24.1012 38.3183 25.4033 39.9194 25.4033C41.5206 25.4033 42.8227 24.1012 42.8227 22.5C42.8227 21.1456 41.8864 20.014 40.6294 19.6947ZM39.9194 1.45164H41.3711V2.90329H39.9194V1.45164ZM5.08062 2.90329H3.62898V1.45164H5.08062V2.90329ZM6.53211 22.5C6.53211 23.3005 5.88113 23.9516 5.08047 23.9516C4.27981 23.9516 3.62883 23.3007 3.62883 22.5C3.62883 21.6993 4.27981 21.0484 5.08047 21.0484C5.88113 21.0484 6.53211 21.6995 6.53211 22.5ZM39.9194 23.9516C39.1188 23.9516 38.4678 23.3007 38.4678 22.5C38.4678 21.6993 39.1188 21.0484 39.9194 21.0484C40.7201 21.0484 41.3711 21.6995 41.3711 22.5C41.3711 23.3005 40.7201 23.9516 39.9194 23.9516Z" fill="#3C3DDC"/>
<path d="M26.8547 17.4194C28.0552 17.4194 29.0322 16.4424 29.0322 15.2419C29.0322 14.0415 28.0552 13.0645 26.8547 13.0645C25.6542 13.0645 24.6772 14.0415 24.6772 15.2419V15.9677H20.3225V15.2419C20.3225 14.0415 19.3454 13.0645 18.145 13.0645C16.9445 13.0645 15.9675 14.0415 15.9675 15.2419C15.9675 16.4424 16.9445 17.4194 18.145 17.4194H18.8708V21.7742H18.145C16.9445 21.7742 15.9675 22.7512 15.9675 23.9516C15.9675 25.1521 16.9445 26.1291 18.145 26.1291C19.3454 26.1291 20.3225 25.1521 20.3225 23.9516V23.2258H24.6772V23.9516C24.6772 25.1521 25.6542 26.1291 26.8547 26.1291C28.0552 26.1291 29.0322 25.1521 29.0322 23.9516C29.0322 22.7512 28.0552 21.7742 26.8547 21.7742H26.1289V17.4194H26.8547ZM26.1292 15.2419C26.1292 14.842 26.4543 14.5161 26.855 14.5161C27.2557 14.5161 27.5808 14.842 27.5808 15.2419C27.5808 15.6419 27.2557 15.9677 26.855 15.9677H26.1292V15.2419ZM18.8711 23.9516C18.8711 24.3516 18.546 24.6774 18.1453 24.6774C17.7446 24.6774 17.4195 24.3516 17.4195 23.9516C17.4195 23.5517 17.7446 23.2258 18.1453 23.2258H18.8711V23.9516ZM18.8711 15.9677H18.1453C17.7446 15.9677 17.4195 15.6419 17.4195 15.2419C17.4195 14.842 17.7446 14.5161 18.1453 14.5161C18.546 14.5161 18.8711 14.842 18.8711 15.2419V15.9677ZM24.6775 21.7742H20.3228V17.4194H24.6775V21.7742ZM26.8547 23.2258C27.2554 23.2258 27.5805 23.5517 27.5805 23.9516C27.5805 24.3516 27.2554 24.6774 26.8547 24.6774C26.454 24.6774 26.1289 24.3516 26.1289 23.9516V23.2258H26.8547Z" fill="#F5812D"/>
</g>
<defs>
<clipPath id="clip0_476_929">
<rect width="45" height="45" fill="white"/>
</clipPath>
</defs>
</svg>
