<svg width="45" height="45" viewBox="0 0 45 45" fill="none" xmlns="http://www.w3.org/2000/svg">
<path d="M0.801862 2.973L0.482812 3.26595L0.457162 18.5534C0.440062 33.7544 0.440062 33.8318 0.612412 34.1162C0.948562 34.6679 0.647062 34.6503 8.62646 34.6503H15.8823L15.8476 36.1844C15.822 37.6491 15.813 37.727 15.5803 38.1923C15.0286 39.3213 14.1583 39.9329 12.8142 40.1313C12.1248 40.2348 12.0042 40.278 11.7972 40.5107C11.3404 41.0106 11.3751 41.6222 11.866 42.0533L12.1675 42.3206H22.4995H32.832L33.1335 42.0533C33.6244 41.6222 33.6591 41.0106 33.2023 40.5107C32.9953 40.278 32.8747 40.2348 32.1853 40.1313C30.8412 39.9333 29.9709 39.3213 29.4192 38.1923C29.1865 37.727 29.178 37.6496 29.1519 36.1758L29.1172 34.6503H36.3915C43.2765 34.6503 43.6729 34.6418 43.9573 34.4951C44.1211 34.4087 44.3277 34.2021 44.4141 34.0383C44.5522 33.7625 44.5608 32.8836 44.5432 18.5097L44.5176 3.2655L44.199 2.97255L43.8714 2.67961H22.5004H1.12946L0.801862 2.973ZM42.3202 16.4249V28.0151H22.5004H2.68061V16.4249V4.83466H22.5004H42.3202V16.4249ZM42.3202 31.3325V32.4098H22.5004H2.68061V31.3325V30.2552H22.5004H42.3202V31.3325ZM26.8951 35.9427C26.8951 37.7868 27.1795 38.9762 27.8428 39.9153L28.0237 40.1651H22.5004H16.9767L17.1576 39.9153C17.3988 39.5706 17.752 38.7863 17.9073 38.2436C17.9937 37.9592 18.0535 37.2266 18.0796 36.2186L18.1228 34.6503H22.509H26.8951V35.9427Z" fill="#3C3DDC"/>
<path d="M8.83345 6.04063C8.7385 6.07528 8.54905 6.23008 8.42845 6.38533L8.1958 6.66118V16.4073C8.20435 24.1801 8.22145 26.2051 8.3164 26.3604C8.3767 26.4724 8.5405 26.6362 8.6782 26.7307C8.9194 26.886 9.2299 26.8945 22.4833 26.8945C34.8835 26.8945 36.0643 26.886 36.2884 26.7568C36.8401 26.4292 36.8055 27.1272 36.8055 16.3902V6.64408L36.5125 6.31648L36.2196 5.99743L22.6125 5.98033C15.1326 5.97178 8.9365 5.99788 8.83345 6.04063ZM34.6509 9.83233V11.4694H22.5004H10.35V9.83233V8.19523H22.5004H34.6509V9.83233ZM18.0882 19.1995L18.0625 24.6972H14.2276H10.3927L10.3671 19.1995L10.35 13.7104H14.2276H18.1053L18.0882 19.1995ZM34.6337 19.1995L34.6081 24.6972H27.4554H20.3031L20.277 19.1995L20.2599 13.7104H27.4554H34.6509L34.6337 19.1995Z" fill="#F5812D"/>
<path d="M11.9786 9.2204C11.4616 9.746 11.746 10.5645 12.4786 10.668C12.8147 10.7112 12.875 10.6851 13.1594 10.4007C13.4438 10.1163 13.4695 10.056 13.4267 9.7199C13.3232 8.98775 12.5042 8.7038 11.9786 9.2204Z" fill="#3C3DDC"/>
<path d="M15.2532 9.22037C14.6502 9.83237 15.21 10.8233 16.0718 10.6595C17.0627 10.47 16.8818 8.97062 15.8648 8.97062C15.5808 8.97062 15.4517 9.02237 15.2532 9.22037Z" fill="#3C3DDC"/>
<path d="M18.5967 9.19481C18.1831 9.60836 18.2434 10.2204 18.7258 10.5565C19.4152 11.0479 20.3544 10.1772 19.9669 9.41891C19.7946 9.08276 19.5876 8.97071 19.1569 8.97071C18.9067 8.97071 18.7605 9.03101 18.5967 9.19481Z" fill="#3C3DDC"/>
<path d="M12.1078 14.9079C11.5219 15.1752 11.2978 15.8902 11.6425 16.4419C11.9525 16.9504 12.1163 16.9846 14.2277 16.9846C16.3391 16.9846 16.5025 16.95 16.813 16.4419C17.1577 15.8902 16.9336 15.1752 16.3477 14.9079C16.0376 14.7702 15.7618 14.7441 14.2277 14.7441C12.6937 14.7441 12.4183 14.7702 12.1078 14.9079Z" fill="#3C3DDC"/>
<path d="M12.0736 18.2172C11.9615 18.2775 11.7721 18.4584 11.66 18.6222C11.3585 19.0704 11.4359 19.596 11.8495 19.9749L12.1595 20.2593H14.2277H16.2959L16.606 19.9749C17.0195 19.5955 17.0969 19.0699 16.7954 18.6222C16.4593 18.1308 16.3648 18.1051 14.2273 18.1051C12.8489 18.1051 12.2288 18.1393 12.0736 18.2172Z" fill="#3C3DDC"/>
<path d="M12.0991 21.5089C11.5218 21.7586 11.3062 22.5259 11.6424 23.0857C11.9439 23.5856 12.1941 23.6284 14.3397 23.6027C16.1752 23.5771 16.2612 23.5681 16.5285 23.3786C17.0973 22.9736 17.0973 22.0255 16.5285 21.6034C16.2958 21.431 16.1581 21.4225 14.3311 21.4054C12.7885 21.3883 12.3147 21.4054 12.0991 21.5089Z" fill="#3C3DDC"/>
<path d="M22.0693 14.8908C21.9055 14.9767 21.6814 15.1752 21.5779 15.339C21.3884 15.6234 21.3799 15.7008 21.3799 17.476C21.3799 19.4839 21.4231 19.7337 21.8537 20.0698C22.0864 20.2507 22.1728 20.2593 24.1114 20.2593C27.0238 20.2593 26.8946 20.3799 26.8946 17.5449C26.8946 14.6923 26.9981 14.7958 24.2662 14.7616C22.5863 14.7441 22.3366 14.7531 22.0693 14.8908ZM24.7238 17.5192L24.6982 18.0619L24.164 18.0876L23.6213 18.1137V17.5449V16.9846H24.1816H24.7504L24.7238 17.5192Z" fill="#3C3DDC"/>
<path d="M28.6532 14.9079C28.0412 15.1837 27.998 15.3732 28.0326 17.6826L28.0583 19.6734L28.3773 19.9663L28.7049 20.2593H30.7731H32.8409L33.1685 19.9663L33.4875 19.6734L33.5132 17.6826C33.5564 14.7094 33.5906 14.7441 30.7727 14.7441C29.2391 14.7441 28.9632 14.7702 28.6532 14.9079ZM31.2902 17.5449V18.1051H30.7731H30.2561V17.5449V16.9846H30.7731H31.2902V17.5449Z" fill="#3C3DDC"/>
<path d="M21.9919 21.5346C21.6643 21.7069 21.3799 22.1637 21.3799 22.4998C21.3799 22.836 21.6643 23.2927 21.9919 23.4651C22.2677 23.6118 22.5692 23.6203 27.5413 23.6028L32.7977 23.5771L33.0736 23.3791C33.6424 22.9741 33.6424 22.026 33.0736 21.6039C32.8324 21.423 32.7545 21.423 27.5584 21.3969C22.5692 21.3798 22.2677 21.3883 21.9919 21.5346Z" fill="#3C3DDC"/>
</svg>
