<svg width="28" height="28" viewBox="0 0 28 28" fill="none" xmlns="http://www.w3.org/2000/svg">
<path fill-rule="evenodd" clip-rule="evenodd" d="M22.5468 6.74063C23.3333 7.91768 23.3333 9.55621 23.3333 12.8333C23.3333 16.1104 23.3333 17.7489 22.5468 18.926C22.2063 19.4355 21.7688 19.873 21.2593 20.2135C20.231 20.9005 18.8506 20.9874 16.3333 20.9984V21L14.8944 23.8778C14.5259 24.6148 13.4741 24.6148 13.1055 23.8778L11.6666 21V20.9984C9.14931 20.9874 7.76888 20.9005 6.74063 20.2135C6.23108 19.873 5.79357 19.4355 5.4531 18.926C4.66663 17.7489 4.66663 16.1104 4.66663 12.8333C4.66663 9.55621 4.66663 7.91768 5.4531 6.74063C5.79357 6.23108 6.23108 5.79357 6.74063 5.4531C7.91768 4.66663 9.55621 4.66663 12.8333 4.66663H15.1666C18.4437 4.66663 20.0822 4.66663 21.2593 5.4531C21.7688 5.79357 22.2063 6.23108 22.5468 6.74063Z" fill="white"/>
<ellipse cx="18.6667" cy="12.8333" rx="1.16667" ry="1.16667" fill="#F5812D"/>
<ellipse cx="14" cy="12.8333" rx="1.16667" ry="1.16667" fill="#F5812D"/>
<circle cx="9.33329" cy="12.8333" r="1.16667" fill="#F5812D"/>
</svg>
