<svg width="12" height="13" viewBox="0 0 12 13" fill="none" xmlns="http://www.w3.org/2000/svg">
<path d="M7.8 4.69998H4.20001V8.29998H7.8V4.69998Z" fill="#F5812D"/>
<path fill-rule="evenodd" clip-rule="evenodd" d="M4.20001 1.69998C4.20001 1.3686 4.46863 1.09998 4.80001 1.09998C5.13138 1.09998 5.40001 1.3686 5.40001 1.69998V2.29998H6.60001V1.69998C6.60001 1.3686 6.86863 1.09998 7.20001 1.09998C7.53138 1.09998 7.8 1.3686 7.8 1.69998V2.29998H9C9.66275 2.29998 10.2 2.83723 10.2 3.49998V4.69998H10.8C11.1314 4.69998 11.4 4.9686 11.4 5.29998C11.4 5.63135 11.1314 5.89998 10.8 5.89998H10.2V7.09998H10.8C11.1314 7.09998 11.4 7.3686 11.4 7.69998C11.4 8.03135 11.1314 8.29998 10.8 8.29998H10.2V9.49998C10.2 10.1627 9.66275 10.7 9 10.7H7.8V11.3C7.8 11.6313 7.53138 11.9 7.20001 11.9C6.86863 11.9 6.60001 11.6313 6.60001 11.3V10.7H5.40001V11.3C5.40001 11.6313 5.13138 11.9 4.80001 11.9C4.46863 11.9 4.20001 11.6313 4.20001 11.3V10.7H3.00001C2.33726 10.7 1.80001 10.1627 1.80001 9.49998V8.29998H1.20001C0.868635 8.29998 0.600006 8.03135 0.600006 7.69998C0.600006 7.3686 0.868635 7.09998 1.20001 7.09998H1.80001V5.89998H1.20001C0.868635 5.89998 0.600006 5.63135 0.600006 5.29998C0.600006 4.9686 0.868635 4.69998 1.20001 4.69998H1.80001V3.49998C1.80001 2.83723 2.33726 2.29998 3.00001 2.29998H4.20001V1.69998ZM3.00001 3.49998H9V9.49998H3.00001V3.49998Z" fill="#F5812D"/>
</svg>
