<svg width="28" height="24" viewBox="0 0 28 24" fill="none" xmlns="http://www.w3.org/2000/svg">
<path fill-rule="evenodd" clip-rule="evenodd" d="M0 2C0 0.89543 0.89543 0 2 0H26C27.1046 0 28 0.89543 28 2C28 3.10457 27.1046 4 26 4H2C0.89543 4 0 3.10457 0 2Z" fill="#2C2C2C"/>
<path fill-rule="evenodd" clip-rule="evenodd" d="M0 12C0 10.8954 0.89543 10 2 10H26C27.1046 10 28 10.8954 28 12C28 13.1046 27.1046 14 26 14H2C0.89543 14 0 13.1046 0 12Z" fill="#2C2C2C"/>
<path fill-rule="evenodd" clip-rule="evenodd" d="M12 22C12 20.8954 12.8954 20 14 20H26C27.1046 20 28 20.8954 28 22C28 23.1046 27.1046 24 26 24H14C12.8954 24 12 23.1046 12 22Z" fill="#2C2C2C"/>
</svg>
