<svg width="28" height="28" viewBox="0 0 28 28" fill="none" xmlns="http://www.w3.org/2000/svg">
<path fill-rule="evenodd" clip-rule="evenodd" d="M14 22.1667C18.5104 22.1667 22.1667 18.5104 22.1667 14C22.1667 9.48971 18.5104 5.83337 14 5.83337C9.48971 5.83337 5.83337 9.48971 5.83337 14C5.83337 18.5104 9.48971 22.1667 14 22.1667ZM11.7039 8.45676C12.4319 8.15524 13.2121 8.00004 14 8.00004C14.2762 8.00004 14.5 7.77618 14.5 7.50004C14.5 7.2239 14.2762 7.00004 14 7.00004C13.0808 7.00004 12.1705 7.1811 11.3213 7.53288C10.472 7.88467 9.7003 8.40028 9.05029 9.05029C8.40028 9.7003 7.88467 10.472 7.53288 11.3213C7.1811 12.1705 7.00004 13.0808 7.00004 14C7.00004 14.2762 7.2239 14.5 7.50004 14.5C7.77618 14.5 8.00004 14.2762 8.00004 14C8.00004 13.2121 8.15523 12.4319 8.45676 11.7039C8.75829 10.976 9.20025 10.3146 9.7574 9.7574C10.3146 9.20025 10.976 8.75829 11.7039 8.45676Z" fill="#EF6501" fill-opacity="0.08"/>
<path d="M23.9167 23.9167L19.8334 19.8334" stroke="#F5812D" stroke-linecap="round"/>
<circle cx="12.8334" cy="12.8334" r="10" stroke="#F5812D"/>
</svg>
