<svg width="10" height="11" viewBox="0 0 10 11" fill="none" xmlns="http://www.w3.org/2000/svg">
<path d="M6.745 4.315C6.655 2.92 6.09 1.56 5.03 0.5C3.96 1.57 3.37 2.93 3.255 4.315C3.895 4.655 4.485 5.095 5 5.63C5.515 5.1 6.105 4.66 6.745 4.315ZM5.025 2.095C5.34 2.61 5.56 3.185 5.675 3.785C5.44 3.935 5.22 4.1 5.005 4.275C4.795 4.105 4.57 3.94 4.34 3.79C4.465 3.19 4.695 2.615 5.025 2.095ZM5 7.225C4.59 6.6 4.07 6.055 3.47 5.625C3.405 5.58 3.335 5.545 3.27 5.495C3.335 5.54 3.405 5.58 3.465 5.62C2.49 4.915 1.295 4.5 0 4.5C0 7.16 1.68 9.41 4.015 10.245C4.33 10.36 4.66 10.445 5 10.5C5.34 10.44 5.665 10.355 5.985 10.245C8.32 9.41 10 7.16 10 4.5C7.91 4.5 6.075 5.585 5 7.225ZM5.66 9.3C5.44 9.375 5.22 9.435 4.995 9.485C4.775 9.44 4.56 9.38 4.355 9.305C2.71 8.715 1.505 7.31 1.13 5.63C1.68 5.76 2.205 5.985 2.69 6.295L2.68 6.3C2.745 6.345 2.81 6.39 2.875 6.425L2.91 6.445C3.405 6.805 3.83 7.25 4.165 7.77L5 9.05L5.835 7.775C6.18 7.25 6.61 6.8 7.1 6.445L7.135 6.42C7.18 6.395 7.225 6.365 7.27 6.335L7.265 6.325C7.755 6 8.3 5.76 8.87 5.625C8.495 7.31 7.295 8.715 5.66 9.3ZM3.495 5.64C3.485 5.635 3.475 5.625 3.47 5.62C3.47 5.62 3.475 5.62 3.475 5.625C3.48 5.63 3.485 5.635 3.495 5.64Z" fill="#F5812D"/>
</svg>
